<svg xmlns="http://www.w3.org/2000/svg" version="1.1" xmlns:xlink="http://www.w3.org/1999/xlink" xmlns:svgjs="http://svgjs.com/svgjs" width="1440" height="560" preserveAspectRatio="none" viewBox="0 0 1440 560"><g mask="url(&quot;#SvgjsMask1035&quot;)" fill="none"><rect width="1440" height="560" x="0" y="0" fill="#0e2a47"></rect><path d="M 0,187 C 57.6,160 172.8,40.8 288,52 C 403.2,63.2 460.8,229.4 576,243 C 691.2,256.6 748.8,132.4 864,120 C 979.2,107.6 1036.8,186.8 1152,181 C 1267.2,175.2 1382.4,109 1440,91L1440 560L0 560z" fill="#184a7e"></path><path d="M 0,375 C 72,406.8 216,551.4 360,534 C 504,516.6 576,307.6 720,288 C 864,268.4 936,417 1080,436 C 1224,455 1368,393.6 1440,383L1440 560L0 560z" fill="#2264ab"></path></g><defs><mask id="SvgjsMask1035"><rect width="1440" height="560" fill="#ffffff"></rect></mask></defs></svg>